<svg width="60" height="60" viewBox="0 0 60 60" fill="none" xmlns="http://www.w3.org/2000/svg">
<path d="M20.0902 8.78039L19.6312 7.88354L18.7378 8.34918C16.0663 9.74155 13.6854 11.6134 11.7089 13.8504L11.028 14.6211L11.8175 15.2802L15.0433 17.973L15.7852 18.5924L16.4295 17.872C17.8845 16.2451 19.6273 14.8817 21.5773 13.8618L22.4556 13.4024L22.0041 12.5201L20.0902 8.78039ZM59 30C59 46.0163 46.0163 59 30 59C13.9837 59 1 46.0163 1 30C1 13.9837 13.9837 1 30 1C46.0163 1 59 13.9837 59 30Z" fill="white" stroke="black" stroke-width="2"/>
</svg>
